<?xml version="1.0" encoding="utf-8"?>
<!-- Generator: Adobe Illustrator 22.1.0, SVG Export Plug-In . SVG Version: 6.00 Build 0)  -->
<svg version="1.1" id="Capa_1" xmlns="http://www.w3.org/2000/svg" xmlns:xlink="http://www.w3.org/1999/xlink" x="0px" y="0px"
	 viewBox="0 0 31.6 31.6" style="enable-background:new 0 0 31.6 31.6;" xml:space="preserve">
<path d="M15.8,0C7.1,0,0,7.1,0,15.8c0,8.7,7.1,15.8,15.8,15.8c8.7,0,15.8-7.1,15.8-15.8C31.6,7.1,24.5,0,15.8,0z M25.4,15.8
	c0,1.1-0.9,2-2,2h-5.6v5.6c0,1.1-0.9,2-2,2s-2-0.9-2-2v-5.6H8.2c-1.1,0-2-0.9-2-2s0.9-2,2-2h5.6V8.2c0-1.1,0.9-2,2-2h0
	c1.1,0,2,0.9,2,2v5.6h5.6C24.5,13.8,25.4,14.7,25.4,15.8L25.4,15.8z"/>
</svg>
