<svg xmlns="http://www.w3.org/2000/svg" viewBox="0 0 29.782 29.782">
  <defs>
    <style>
      .cls-1 {
        fill: #fafda6;
      }
    </style>
  </defs>
  <path id="clock" class="cls-1" d="M-634-453.109A14.879,14.879,0,0,1-619.129-468a14.9,14.9,0,0,1,14.912,14.891,14.9,14.9,0,0,1-14.891,14.891A14.9,14.9,0,0,1-634-453.109Zm3.656,0a11.212,11.212,0,0,0,11.215,11.215,11.216,11.216,0,0,0,11.215-11.235,11.212,11.212,0,0,0-11.215-11.215A11.229,11.229,0,0,0-630.344-453.109Zm10.368,2s.014-.438.04-1.149c-.673.026-1.093.038-1.093.034a.873.873,0,0,1-.867-.867.873.873,0,0,1,.867-.867s.447.016,1.157.047c.147-3.621.436-9.465.764-9.465s.62,5.918.766,9.534c3.157.151,7.97.432,7.97.752s-4.754.616-7.912.763c.028.752.043,1.22.043,1.22a.873.873,0,0,1-.867.868A.873.873,0,0,1-619.976-451.106Z" transform="translate(634 468)"/>
</svg>
