<svg xmlns="http://www.w3.org/2000/svg" viewBox="0 0 27.962 27.7">
  <defs>
    <style>
      .cls-1 {
        fill: #4978ab;
      }
    </style>
  </defs>
  <path id="config" class="cls-1" d="M27.263,11.3l-3.321-.524a6.764,6.764,0,0,0-.612-1.4l1.922-2.709a.925.925,0,0,0-.087-1.136L22.544,2.909a.916.916,0,0,0-1.136-.087L18.7,4.744a9.709,9.709,0,0,0-1.4-.612L16.777.9A.851.851,0,0,0,15.9.2H12.146a.941.941,0,0,0-.874.7l-.524,3.233a6.764,6.764,0,0,0-1.4.612l-2.8-2.01a.823.823,0,0,0-1.136.087L2.8,5.443a.823.823,0,0,0-.087,1.136L4.631,9.288a9.709,9.709,0,0,0-.612,1.4L.7,11.21a.851.851,0,0,0-.7.874v3.757a.941.941,0,0,0,.7.874l3.321.524a6.764,6.764,0,0,0,.612,1.4L2.709,21.346A.925.925,0,0,0,2.8,22.482L5.418,25.1a.916.916,0,0,0,1.136.087l2.709-1.922a9.709,9.709,0,0,0,1.4.612l.524,3.321a.851.851,0,0,0,.874.7h3.757a.941.941,0,0,0,.874-.7l.524-3.321a6.764,6.764,0,0,0,1.4-.612l2.709,1.922a.925.925,0,0,0,1.136-.087l2.621-2.621a.916.916,0,0,0,.087-1.136l-1.922-2.709a9.709,9.709,0,0,0,.612-1.4l4.107-.612h0V12.084A.84.84,0,0,0,27.263,11.3Zm-13.282,9a6.291,6.291,0,1,1,6.291-6.291A6.265,6.265,0,0,1,13.981,20.3Z" transform="translate(0 -0.2)"/>
</svg>
