<svg xmlns="http://www.w3.org/2000/svg" viewBox="0 0 20.243 20.243">
  <defs>
    <style>
      .cls-1 {
        fill: #4978ab;
      }
    </style>
  </defs>
  <path id="Search_Icon" data-name="Search Icon" class="cls-1" d="M15.056,12.631l5.075,5.075c.056.113.113.169.113.282a.431.431,0,0,1-.113.282L18.27,20.13c-.113.056-.169.113-.282.113a.431.431,0,0,1-.282-.113l-5.075-5.075a7.717,7.717,0,0,1-4.4,1.3,7.881,7.881,0,0,1-5.808-2.425A7.67,7.67,0,0,1,0,8.176,7.881,7.881,0,0,1,2.425,2.368,7.83,7.83,0,0,1,8.176,0a7.881,7.881,0,0,1,5.808,2.425,8.009,8.009,0,0,1,2.425,5.808A8.233,8.233,0,0,1,15.056,12.631ZM4.229,4.229A5.452,5.452,0,0,0,2.594,8.176a5.583,5.583,0,0,0,5.582,5.582,5.583,5.583,0,0,0,5.582-5.582A5.583,5.583,0,0,0,8.176,2.594,5.452,5.452,0,0,0,4.229,4.229Z"/>
</svg>
